<svg width="420" height="120" viewBox="0 0 420 120" fill="none" xmlns="http://www.w3.org/2000/svg" role="img" aria-labelledby="logoTitle logoDesc">
  <title id="logoTitle">Kalyna Express logo</title>
  <desc id="logoDesc">Wordmark Kalyna Express with cherries icon.</desc>
  <defs>
    <linearGradient id="cherryRed" x1="22" y1="44" x2="76" y2="88" gradientUnits="userSpaceOnUse">
      <stop stop-color="#F45151"/>
      <stop offset="1" stop-color="#B70F1C"/>
    </linearGradient>
    <linearGradient id="leafGreen" x1="54" y1="18" x2="84" y2="40" gradientUnits="userSpaceOnUse">
      <stop stop-color="#79B64C"/>
      <stop offset="1" stop-color="#2D6B1F"/>
    </linearGradient>
  </defs>
  <g>
    <path d="M50 16C50 24 49 31 48 38" stroke="#4D7E2A" stroke-width="6" stroke-linecap="round"/>
    <path d="M48 38C41 42 35 51 31 63" stroke="#4D7E2A" stroke-width="6" stroke-linecap="round"/>
    <path d="M48 38C57 43 64 52 68 64" stroke="#4D7E2A" stroke-width="6" stroke-linecap="round"/>
    <path d="M55 17C64 10 76 11 83 19C76 24 65 25 57 23C53 22 52 19 55 17Z" fill="url(#leafGreen)"/>
    <circle cx="30" cy="74" r="18" fill="url(#cherryRed)"/>
    <circle cx="66" cy="74" r="18" fill="url(#cherryRed)"/>
    <circle cx="24" cy="68" r="5.5" fill="#FFB0B5" fill-opacity="0.6"/>
    <circle cx="60" cy="68" r="5.5" fill="#FFB0B5" fill-opacity="0.55"/>
  </g>
  <text x="110" y="55" fill="#1A0A0A" font-family="Inter, Arial, sans-serif" font-size="34" font-weight="800" letter-spacing="0.5">Kalyna Express</text>
  <text x="110" y="84" fill="#705050" font-family="Inter, Arial, sans-serif" font-size="18" font-weight="500">Ukrainian products in Torrevieja</text>
</svg>
