<svg width="420" height="120" viewBox="0 0 420 120" fill="none" xmlns="http://www.w3.org/2000/svg" role="img" aria-labelledby="footerLogoTitle footerLogoDesc">
  <title id="footerLogoTitle">Kalyna Express footer logo</title>
  <desc id="footerLogoDesc">White Kalyna Express wordmark with cherries icon for dark backgrounds.</desc>
  <defs>
    <linearGradient id="footerCherryRed" x1="22" y1="44" x2="76" y2="88" gradientUnits="userSpaceOnUse">
      <stop stop-color="#FF6B6B"/>
      <stop offset="1" stop-color="#D1192F"/>
    </linearGradient>
    <linearGradient id="footerLeafGreen" x1="54" y1="18" x2="84" y2="40" gradientUnits="userSpaceOnUse">
      <stop stop-color="#92D364"/>
      <stop offset="1" stop-color="#4D9B2F"/>
    </linearGradient>
  </defs>
  <g>
    <path d="M50 16C50 24 49 31 48 38" stroke="#7DBB54" stroke-width="6" stroke-linecap="round"/>
    <path d="M48 38C41 42 35 51 31 63" stroke="#7DBB54" stroke-width="6" stroke-linecap="round"/>
    <path d="M48 38C57 43 64 52 68 64" stroke="#7DBB54" stroke-width="6" stroke-linecap="round"/>
    <path d="M55 17C64 10 76 11 83 19C76 24 65 25 57 23C53 22 52 19 55 17Z" fill="url(#footerLeafGreen)"/>
    <circle cx="30" cy="74" r="18" fill="url(#footerCherryRed)"/>
    <circle cx="66" cy="74" r="18" fill="url(#footerCherryRed)"/>
    <circle cx="24" cy="68" r="5.5" fill="#FFD0D4" fill-opacity="0.7"/>
    <circle cx="60" cy="68" r="5.5" fill="#FFD0D4" fill-opacity="0.65"/>
  </g>
  <text x="110" y="55" fill="#FFFFFF" font-family="Inter, Arial, sans-serif" font-size="34" font-weight="800" letter-spacing="0.5">Kalyna Express</text>
  <text x="110" y="84" fill="rgba(255,255,255,0.72)" font-family="Inter, Arial, sans-serif" font-size="18" font-weight="500">Ukrainian products in Torrevieja</text>
</svg>
