<svg width="420" height="120" viewBox="0 0 420 120" fill="none" xmlns="http://www.w3.org/2000/svg" role="img" aria-labelledby="footerLogoTitle footerLogoDesc">
  <title id="footerLogoTitle">Kalyna Express footer logo</title>
  <desc id="footerLogoDesc">Kalyna Express wordmark with a minimal cherry badge for dark backgrounds.</desc>
  <defs>
    <linearGradient id="footerBadgeBg" x1="18" y1="16" x2="82" y2="82" gradientUnits="userSpaceOnUse">
      <stop stop-color="#F3F0E8"/>
      <stop offset="1" stop-color="#E9E3D7"/>
    </linearGradient>
    <linearGradient id="footerBerryFill" x1="30" y1="40" x2="60" y2="72" gradientUnits="userSpaceOnUse">
      <stop stop-color="#FF6C96"/>
      <stop offset="1" stop-color="#D91F59"/>
    </linearGradient>
  </defs>
  <g>
    <circle cx="50" cy="50" r="32" fill="url(#footerBadgeBg)"/>
    <path d="M43 38C42 34 40 30 37 28" stroke="#A8C76A" stroke-width="4.5" stroke-linecap="round"/>
    <path d="M48 38C50 33 53 29 57 26" stroke="#A8C76A" stroke-width="4.5" stroke-linecap="round"/>
    <path d="M48 28C52 26 56 27 59 31C55 33 51 33 48 31C47 30 47 29 48 28Z" fill="#A8C76A"/>
    <circle cx="39" cy="51" r="8.5" fill="url(#footerBerryFill)"/>
    <circle cx="54" cy="51" r="8.5" fill="url(#footerBerryFill)"/>
    <circle cx="36.5" cy="48.5" r="2.3" fill="#FFD4E1" fill-opacity="0.85"/>
    <circle cx="51.5" cy="48.5" r="2.3" fill="#FFD4E1" fill-opacity="0.85"/>
  </g>
  <text x="100" y="48" fill="#FFFFFF" font-family="Inter, Arial, sans-serif" font-size="34" font-weight="800" letter-spacing="0.2">Kalyna Express</text>
  <text x="100" y="76" fill="rgba(255,255,255,0.72)" font-family="Inter, Arial, sans-serif" font-size="17" font-weight="500">Ukrainian products in Torrevieja</text>
</svg>
