<svg width="420" height="120" viewBox="0 0 420 120" fill="none" xmlns="http://www.w3.org/2000/svg" role="img" aria-labelledby="footerLogoTitle footerLogoDesc">
  <title id="footerLogoTitle">Kalyna Express footer logo</title>
  <desc id="footerLogoDesc">White Kalyna Express wordmark with cherries icon for dark backgrounds.</desc>
  <defs>
    <linearGradient id="footerCherryRed" x1="22" y1="44" x2="76" y2="88" gradientUnits="userSpaceOnUse">
      <stop stop-color="#FF6B6B"/>
      <stop offset="1" stop-color="#D1192F"/>
    </linearGradient>
    <linearGradient id="footerLeafGreen" x1="54" y1="18" x2="84" y2="40" gradientUnits="userSpaceOnUse">
      <stop stop-color="#92D364"/>
      <stop offset="1" stop-color="#4D9B2F"/>
    </linearGradient>
  </defs>
  <g>
    <path d="M53 14C51 23 50 31 50 39" stroke="#7DBB54" stroke-width="6" stroke-linecap="round"/>
    <path d="M49 38C40 44 33 55 31 66" stroke="#7DBB54" stroke-width="6" stroke-linecap="round"/>
    <path d="M51 38C60 43 67 54 69 67" stroke="#7DBB54" stroke-width="6" stroke-linecap="round"/>
    <path d="M56 15C65 10 76 12 83 21C75 26 64 26 56 22C53 20 53 17 56 15Z" fill="url(#footerLeafGreen)"/>
    <circle cx="30" cy="73" r="20" fill="url(#footerCherryRed)"/>
    <circle cx="66" cy="78" r="22" fill="url(#footerCherryRed)"/>
    <circle cx="24" cy="67" r="6" fill="#FFD0D4" fill-opacity="0.7"/>
    <circle cx="59" cy="70" r="7" fill="#FFD0D4" fill-opacity="0.65"/>
  </g>
  <text x="110" y="55" fill="#FFFFFF" font-family="Inter, Arial, sans-serif" font-size="34" font-weight="800" letter-spacing="0.5">Kalyna Express</text>
  <text x="110" y="84" fill="rgba(255,255,255,0.72)" font-family="Inter, Arial, sans-serif" font-size="18" font-weight="500">Ukrainian products in Torrevieja</text>
</svg>
