<svg width="420" height="120" viewBox="0 0 420 120" fill="none" xmlns="http://www.w3.org/2000/svg" role="img" aria-labelledby="logoTitle logoDesc">
  <title id="logoTitle">Kalyna Express logo</title>
  <desc id="logoDesc">Wordmark Kalyna Express with cherries icon.</desc>
  <defs>
    <linearGradient id="cherryRed" x1="22" y1="44" x2="76" y2="88" gradientUnits="userSpaceOnUse">
      <stop stop-color="#F45151"/>
      <stop offset="1" stop-color="#B70F1C"/>
    </linearGradient>
    <linearGradient id="leafGreen" x1="54" y1="18" x2="84" y2="40" gradientUnits="userSpaceOnUse">
      <stop stop-color="#79B64C"/>
      <stop offset="1" stop-color="#2D6B1F"/>
    </linearGradient>
  </defs>
  <g>
    <path d="M48 56C48 39 54 23 67 12" stroke="#4D7E2A" stroke-width="6" stroke-linecap="round"/>
    <path d="M67 12C69 22 75 30 86 34" stroke="#4D7E2A" stroke-width="6" stroke-linecap="round"/>
    <path d="M48 56C45 38 35 25 20 18" stroke="#4D7E2A" stroke-width="6" stroke-linecap="round"/>
    <path d="M20 18C25 28 24 37 18 45" stroke="#4D7E2A" stroke-width="6" stroke-linecap="round"/>
    <path d="M63 20C71 13 82 13 92 20C84 28 71 32 60 30C58 26 59 22 63 20Z" fill="url(#leafGreen)"/>
    <circle cx="30" cy="73" r="20" fill="url(#cherryRed)"/>
    <circle cx="66" cy="78" r="22" fill="url(#cherryRed)"/>
    <circle cx="24" cy="67" r="6" fill="#FFB0B5" fill-opacity="0.6"/>
    <circle cx="59" cy="70" r="7" fill="#FFB0B5" fill-opacity="0.55"/>
  </g>
  <text x="110" y="55" fill="#1A0A0A" font-family="Inter, Arial, sans-serif" font-size="34" font-weight="800" letter-spacing="0.5">Kalyna Express</text>
  <text x="110" y="84" fill="#705050" font-family="Inter, Arial, sans-serif" font-size="18" font-weight="500">Ukrainian products in Torrevieja</text>
</svg>
